#!OML:ASF X:\für Bonn\!DataBase\2005_08_12_Daniel\c3d\Daniel.ASF
:FULLY-SPECIFIED
:DEGREES
32
root 2.41608 17.5185 18.3505 -8.93296 -353.085 361.506
lowerback 6.12206 -2.66947 -0.957921
upperback 2.21796 -3.64792 -2.44068
thorax -1.24232 -1.8184 -1.71196
lowerneck 2.26066 2.55296 -3.13757
upperneck 6.477 3.51883 -2.62051
head 1.62042 1.63906 -0.265321
rclavicle -6.64065e-014 -2.26615e-014
rhumerus -40.2507 -5.59386 -89.3487
rradius 23.8903
rwrist 14.4466
rhand -19.3007 19.1551
rfingers 7.12502
rthumb 7.01491 -10.7086
lclavicle -6.64065e-014 -2.26615e-014
lhumerus -29.7905 31.025 76.6185
lradius 25.2963
lwrist -23.3222
lhand -14.0929 -6.472
lfingers 7.12502
lthumb 12.0395 23.1617
rfemur 7.32065 11.1417 16.9002
rtibia 21.109
rfoot -21.4273 -15.4533
rtoes -14.3118
lfemur -0.267994 -15.2668 -23.5544
ltibia 31.9441
lfoot -20.8191 4.3722
ltoes -14.4601
33
root 2.40618 17.521 18.3771 -8.76905 -353.079 361.506
lowerback 5.95774 -2.65716 -0.936254
upperback 2.14551 -3.62857 -2.44163
thorax -1.22652 -1.80895 -1.73232
lowerneck 2.12687 2.53057 -3.07924
upperneck 6.56452 3.49832 -2.61286
head 1.67235 1.62733 -0.270189
rclavicle 1.90336e-014 1.98785e-015
rhumerus -40.6588 -4.66211 -89.8306
rradius 24.957
rwrist 13.4366
rhand -19.6725 19.3777
rfingers 7.12502
rthumb 6.65597 -10.4977
lclavicle 1.90336e-014 1.98785e-015
lhumerus -30.2234 31.6547 76.2574
lradius 24.8881
lwrist -24.2626
lhand -13.7579 -6.46857
lfingers 7.12502
lthumb 12.3626 23.1459
rfemur 7.38086 11.4155 17.0429
rtibia 20.928
rfoot -21.5964 -15.7495
rtoes -14.3373
lfemur -0.272502 -15.3814 -23.5164
ltibia 31.8304
lfoot -20.891 4.47365
ltoes -14.5651
34
root 2.39644 17.5251 18.4006 -8.59692 -353.076 361.504
lowerback 5.81811 -2.63401 -0.914929
upperback 2.07252 -3.5954 -2.4438
thorax -1.22462 -1.79256 -1.75343
lowerneck 1.93731 2.50096 -3.01754
upperneck 6.68459 3.47077 -2.58854
head 1.74426 1.61138 -0.269562
rclavicle -3.48619e-014 -1.15295e-014
rhumerus -41.1101 -3.68067 -90.3556
rradius 26.1854
rwrist 12.4208
rhand -20.0932 19.5824
rfingers 7.12502
rthumb 6.24983 -10.3054
lclavicle -3.48619e-014 -1.15295e-014
lhumerus -30.6574 32.3578 75.853
lradius 24.4309
lwrist -25.2545
lhand -13.3958 -6.43065
lfingers 7.12502
lthumb 12.7116 23.1625
rfemur 7.40275 11.7137 17.1907
rtibia 20.7716
rfoot -21.7418 -16.1015
rtoes -14.3813
lfemur -0.297812 -15.5143 -23.4741
ltibia 31.7169
lfoot -20.9428 4.56337
ltoes -14.6105
35
root 2.38695 17.5281 18.4229 -8.43222 -353.072 361.504
lowerback 5.70881 -2.62655 -0.905177
upperback 1.99264 -3.58461 -2.44104
thorax -1.24616 -1.78736 -1.75973
lowerneck 1.76014 2.48776 -2.96223
upperneck 6.78548 3.46346 -2.56409
head 1.80798 1.60595 -0.268022
rclavicle -4.00303e-014 -7.95139e-016
rhumerus -41.6371 -2.6316 -90.8951
rradius 27.565
rwrist 11.4542
rhand -20.5547 19.8611
rfingers 7.12502
rthumb 5.80428 -10.0394
lclavicle -4.00303e-014 -7.95139e-016
lhumerus -31.1727 33.1417 75.3852
lradius 23.9985
lwrist -26.2025
lhand -13.0456 -6.37215
lfingers 7.12502
lthumb 13.0492 23.1997
rfemur 7.41162 11.9555 17.3159
rtibia 20.6405
rfoot -21.8771 -16.3804
rtoes -14.4758
lfemur -0.324949 -15.6126 -23.4296
ltibia 31.6038
lfoot -20.9848 4.64915
ltoes -14.674
36
root 2.37871 17.5315 18.4443 -8.29214 -353.056 361.516
lowerback 5.62916 -2.61947 -0.898036
upperback 1.92677 -3.57491 -2.44825
thorax -1.27024 -1.78266 -1.77369
lowerneck 1.55098 2.4671 -2.89148
upperneck 6.90905 3.44879 -2.55371
head 1.88543 1.59628 -0.272938
rclavicle 1.66482e-015 -2.78299e-015
rhumerus -42.1763 -1.69613 -91.3902
rradius 29.0538
rwrist 10.6411
rhand -21.0283 20.282
rfingers 7.12502
rthumb 5.34702 -9.63051
lclavicle 1.66482e-015 -2.78299e-015
lhumerus -31.7318 34.0488 74.8335
lradius 23.5406
lwrist -27.2694
lhand -12.7289 -6.37179
lfingers 7.12502
lthumb 13.3545 23.1802
rfemur 7.44879 12.2187 17.432
rtibia 20.5209
rfoot -22.0569 -16.6636
rtoes -14.5065
lfemur -0.323993 -15.7027 -23.4031
ltibia 31.4838
lfoot -21.035 4.69271
ltoes -14.7796
37
root 2.37012 17.5351 18.4646 -8.12965 -353.046 361.514
lowerback 5.53939 -2.6112 -0.880811
upperback 1.84446 -3.56337 -2.45671
thorax -1.30623 -1.77707 -1.79469
lowerneck 1.36089 2.44735 -2.77549
upperneck 7.03021 3.43497 -2.5633
head 1.96027 1.58803 -0.291957
rclavicle 3.80176e-014 8.74653e-015
rhumerus -42.812 -0.758441 -91.915
rradius 30.754
rwrist 9.90585
rhand -21.5523 20.6918
rfingers 7.12502
rthumb 4.84111 -9.23291
lclavicle 3.80176e-014 8.74653e-015
lhumerus -32.3673 35.0105 74.1716
lradius 23.0669
lwrist -28.3635
lhand -12.3642 -6.38531
lfingers 7.12502
lthumb 13.706 23.1433
rfemur 7.44352 12.4578 17.5537
rtibia 20.4201
rfoot -22.2188 -16.9394
rtoes -14.4916
lfemur -0.354293 -15.7781 -23.3517
ltibia 31.3591
lfoot -21.071 4.7523
ltoes -14.8901
38
root 2.36141 17.5388 18.4845 -7.98224 -353.035 361.523
lowerback 5.45898 -2.6068 -0.894827
upperback 1.77376 -3.55836 -2.45738
thorax -1.33322 -1.77473 -1.78972
lowerneck 1.1984 2.43532 -2.69463
upperneck 7.10816 3.4275 -2.55589
head 2.01548 1.58361 -0.300491
rclavicle 1.05604e-014 1.51076e-014
rhumerus -43.5474 0.176783 -92.4214
rradius 32.7214
rwrist 9.28679
rhand -22.0727 21.2034
rfingers 7.12502
rthumb 4.33853 -8.7322
lclavicle 1.05604e-014 1.51076e-014
lhumerus -33.0668 36.1163 73.4181
lradius 22.5931
lwrist -29.5752
lhand -12.0417 -6.40079
lfingers 7.12502
lthumb 14.0169 23.1066
rfemur 7.44486 12.7122 17.6703
rtibia 20.3329
rfoot -22.388 -17.2259
rtoes -14.4759
lfemur -0.365952 -15.8367 -23.3072
ltibia 31.2338
lfoot -21.1011 4.78172
ltoes -14.951
39
root 2.35289 17.5408 18.5026 -7.86156 -353.032 361.533
lowerback 5.417 -2.59966 -0.906806
upperback 1.70357 -3.55049 -2.45911
thorax -1.3812 -1.77091 -1.78532
lowerneck 1.04596 2.41856 -2.62403
upperneck 7.19359 3.41267 -2.53837
head 2.07112 1.57548 -0.304398
rclavicle -7.23079e-015 2.74323e-014
rhumerus -44.413 1.09338 -92.9291
rradius 34.9976
rwrist 8.69912
rhand -22.5795 21.7109
rfingers 7.12502
rthumb 3.8492 -8.23413
lclavicle -7.23079e-015 2.74323e-014
lhumerus -33.8408 37.2333 72.5922
lradius 22.1228
lwrist -30.847
lhand -11.7789 -6.39544
lfingers 7.12502
lthumb 14.2701 23.0943
rfemur 7.46713 12.9778 17.7875
rtibia 20.2602
rfoot -22.5682 -17.4924
rtoes -14.4429
lfemur -0.354494 -15.9232 -23.282
ltibia 31.1131
lfoot -21.1323 4.83326
ltoes -14.9015
40
root 2.34519 17.5438 18.5197 -7.73882 -353.017 361.557
lowerback 5.37315 -2.60358 -0.950532
upperback 1.64215 -3.55849 -2.44922
thorax -1.41685 -1.77494 -1.7506
lowerneck 0.874398 2.41338 -2.55951
upperneck 7.27348 3.41496 -2.543
head 2.12891 1.5752 -0.313802
rclavicle 2.01518e-014 2.38542e-014
rhumerus -45.263 1.98098 -93.3966
rradius 37.3852
rwrist 8.23827
rhand -23.0484 22.3097
rfingers 7.12502
rthumb 3.3964 -7.64295
lclavicle 2.01518e-014 2.38542e-014
lhumerus -34.6828 38.5176 71.6429
lradius 21.6315
lwrist -32.218
lhand -11.5422 -6.3873
lfingers 7.12502
lthumb 14.4981 23.0862
rfemur 7.47152 13.1726 17.8661
rtibia 20.2028
rfoot -22.7162 -17.7171
rtoes -14.5076
lfemur -0.357583 -15.9617 -23.2586
ltibia 30.9968
lfoot -21.1776 4.84412
ltoes -15.0111
41
root 2.33764 17.5454 18.5366 -7.62549 -353.006 361.566
lowerback 5.31659 -2.60567 -0.960808
upperback 1.58874 -3.56212 -2.45795
thorax -1.44028 -1.77685 -1.75478
lowerneck 0.768087 2.40657 -2.47125
upperneck 7.29299 3.40897 -2.53216
head 2.15549 1.57354 -0.323702
rclavicle 1.07095e-014 -3.97569e-015
rhumerus -46.0123 2.83938 -93.9045
rradius 39.6746
rwrist 7.81437
rhand -23.5014 23.1135
rfingers 7.12502
rthumb 2.95888 -6.84568
lclavicle 1.07095e-014 -3.97569e-015
lhumerus -35.6048 39.6877 70.6064
lradius 21.1853
lwrist -33.5439
lhand -11.3924 -6.40255
lfingers 7.12502
lthumb 14.6424 23.0605
rfemur 7.48003 13.4185 17.9734
rtibia 20.1529
rfoot -22.8954 -17.9683
rtoes -14.3813
lfemur -0.35037 -16.0203 -23.2325
ltibia 30.8882
lfoot -21.2031 4.88193
ltoes -15.1184
42
root 2.33057 17.5465 18.5516 -7.53794 -352.978 361.584
lowerback 5.31797 -2.60837 -0.988209
upperback 1.52444 -3.56912 -2.46528
thorax -1.50613 -1.78031 -1.74463
lowerneck 0.719569 2.39797 -2.37342
upperneck 7.30516 3.39904 -2.54055
head 2.17 1.57036 -0.342146
rclavicle -2.99171e-014 -2.66371e-014
rhumerus -46.703 3.63017 -94.3765
rradius 41.9376
rwrist 7.55068
rhand -23.8874 23.942
rfingers 7.12502
rthumb 2.58615 -6.02207
lclavicle -2.99171e-014 -2.66371e-014
lhumerus -36.6576 40.9861 69.3875
lradius 20.6926
lwrist -35.0736
lhand -11.3416 -6.41551
lfingers 7.12502
lthumb 14.6914 23.044
rfemur 7.50392 13.5738 18.0511
rtibia 20.1143
rfoot -23.0285 -18.1627
rtoes -14.4753
lfemur -0.329232 -16.0692 -23.2153
ltibia 30.7816
lfoot -21.2207 4.89207
ltoes -15.1787
